<svg xmlns="http://www.w3.org/2000/svg" width="769.248" height="883" viewBox="0 0 769.248 883">
  <g id="ilustrace" transform="translate(-635 -165)">
    <g id="Group_164" data-name="Group 164">
      <g id="Group_163" data-name="Group 163">
        <path id="Path_394" data-name="Path 394" d="M345.894,73.656C315.86,82,291.35,90.8,278.9,96.761c-71.63,34.313-111.784,108.972-75.254,182.232,26.522,53.189,84.894,87.785,145.6,96.855,32.184,4.808,99.987,4.51,78.43-43.9-27.646-62.078.382-79.278,57.73-106a265.875,265.875,0,0,0,75.4-52.593c11.525-11.5,22.219-24.62,26.04-40.155C614.195,22.055,448.074,45.259,345.894,73.656Z" transform="matrix(0.891, 0.454, -0.454, 0.891, 637.323, 443.564)" fill="#0055ec" opacity="0.7"/>
        <g id="Group_146" data-name="Group 146" transform="translate(332.032 256.122)">
          <path id="Path_369" data-name="Path 369" d="M716.09,323.679S648.557,291.414,628.3,270.4" transform="translate(120.814 200.525)" fill="none" stroke="#000" stroke-miterlimit="10" stroke-width="2"/>
          <path id="Path_370" data-name="Path 370" d="M686.614,440.2c-2.819-1.935-1.457-8.528-1.126-10.13a22.61,22.61,0,0,1,3.095-7.6c10.316-16.141,9.4-23.657,18.008-28.421,1.977-1.093,1.442-.375,12.663-3.095,8.715-2.114,16.183-3.923,21.385-5.909a70.82,70.82,0,0,0,24.605-18.914h0a6.96,6.96,0,0,0,.514-.637s.223-.3.412-.569c.959-1.38,3.9-8.224,3.994-8.466l0,0a.346.346,0,0,0,.018-.112l.018-.1c.024-.139-.566-17.99-.58-21.29-.018-4.664-.042-11.486,4.5-15.758,3.987-3.747,10.908-4.981,12.943-5.345a37.06,37.06,0,0,1,4.142-.476c5.473-.339,12.674.3,12.742,1.32.13,1.979-26.584,8.709-33.2,0a11.1,11.1,0,0,1-2.25-5.627c-.207-4.391,3.218-6.328,2.813-9.848-.337-2.925-3.077-4.9-5.065-6.192-10.908-7.115-54.767-30.263-55.151-29.263-.174.452,8.649,5.592,12.381,2.813,1.741-1.3,1.287-3.509,2.815-9a56.026,56.026,0,0,1,3.657-9.286c6.873-15.793,13.091-73.011,24.2-73.723.478-.029.754.057,2.392.705,17.64,6.967,25.183,11.537,25.185,11.537,41.233,24.975,43.962,25.6,53.462,34.046a148.4,148.4,0,0,1,27.153,30.671c4.4,6.712,11.008,16.941,15.475,32.079a111.728,111.728,0,0,1,4.362,36.157,117.408,117.408,0,0,1-13.787,49.664c-10.692,20.915-25.445,34.279-33.384,41.579-1.832,1.684-3.253,2.918-4.181,3.723-8.528,7.395-22.421,20.9-42.208,28.42-2.3.873-9.692,3.864-24.479,9.848a134.572,134.572,0,0,0-13.225,6.048,90.837,90.837,0,0,0-11.536,6.895c-5.956,4.281-5.753,5.508-15.617,13.646-3.416,2.819-.293.075-8.724,6.333-2.1,1.556-3.41,2.557-5.486,3.095-1.971.509-6.022,1.069-7.174-.421-2.145-2.768,7-10.869,21.1-30.532,10.979-15.306,16.611-25.978,19.979-28.418a3.2,3.2,0,0,0,1.406-1.971c.26-1.763-1.8-3.491-3.377-4.642-7.6-5.548-16.893-12.324-25.747-8.724-2.879,1.173-4.49,2.945-7.316,6.05-6.5,7.146-5.376,11.72-11.254,16.461C694.366,439.083,689.219,441.993,686.614,440.2Z" transform="translate(188.934 85.127)" fill="none" stroke="#000" stroke-miterlimit="10" stroke-width="2"/>
          <path id="Path_371" data-name="Path 371" d="M724.553,257.048c3.879-.141,7.324,1.267,10.82,2.7,3.6,1.477,7.346,2.577,10.939,4.1,13.571,5.733,25.547,13.06,34.178,25.341,4.772,6.789,7.055,14.642,5.358,22.87" transform="translate(236.722 184.431)" fill="none" stroke="#000" stroke-miterlimit="10" stroke-width="2"/>
          <path id="Path_372" data-name="Path 372" d="M721.66,262.468c6.48-1.71,12.87,1.627,18.575,4.329a110.257,110.257,0,0,1,20.5,12.149c11,8.543,17.576,21.713,19.174,35.436" transform="translate(233.238 190.406)" fill="none" stroke="#000" stroke-miterlimit="10" stroke-width="2"/>
          <path id="Path_373" data-name="Path 373" d="M700.872,326.838a36.614,36.614,0,0,0,12.758-2.954c4.012-1.735,9.3-3.668,12.052-8.442.194-.337.364-.679.7-1.36a53.906,53.906,0,0,0,3.705-9.615" transform="translate(208.206 241.544)" fill="none" stroke="#000" stroke-miterlimit="10" stroke-width="2"/>
          <path id="Path_374" data-name="Path 374" d="M787.118,193.43a20.1,20.1,0,0,0-3-2.25,21.761,21.761,0,0,0-9.379-3c-6.383-.674-13.362-4.812-21.385-8.252-17.622-7.56-43.072-12.967-49.149-14.257a340.117,340.117,0,0,0-49.523-6.754" transform="translate(152.584 66.273)" fill="none" stroke="#000" stroke-miterlimit="10" stroke-width="2"/>
          <path id="Path_375" data-name="Path 375" d="M678.954,171.511a58.548,58.548,0,0,0-12.381-.375,70.912,70.912,0,0,0-20.259,5.253c-58.117,25.024-84.041,62.654-84.041,62.656-18.87,27.391-23.432,52.8-27.764,76.91-6.648,37.026-14.23,79.242,10.505,115.179,18.641,27.08,46,36.6,51.024,38.269,28.008,9.28,51.743,2.883,69.407-1.876,11.81-3.181,50.707-14.248,80.664-51.024,22.463-27.574,28.846-56.034,32.265-71.283,3.822-17.036,4.25-30.157,4.878-49.523,1-30.72-2.407-41.959-4.878-48.4-3.011-7.853-6.176-16.108-13.88-24.01-7.723-7.924-13.179-8.488-21.01-18.76a56.371,56.371,0,0,1-8.629-15.758,51.068,51.068,0,0,1-3-18.008c.123-3.734-.456-7.49-.093-11.208.2-2.032.514-4-.705-5.627-1.129-1.51-3.4-2.5-4.924-1.829-1.836.811-2.072,3.822-2.25,7.6-.4,8.568-.108,12.8-.141,18.149-.048,8.341-.844,11.817,1.126,17.726a31.611,31.611,0,0,0,1.547,3.8" transform="translate(0 57.804)" fill="none" stroke="#000" stroke-miterlimit="10" stroke-width="2"/>
          <path id="Path_376" data-name="Path 376" d="M625.993,157.351a38.774,38.774,0,0,0-1.126-3.939,12.873,12.873,0,0,0-1.83-4.08c-1.032-1.267-3.273-3.081-5.486-2.533-1.4.346-2.2,1.49-3.095,2.813a15.353,15.353,0,0,0-2.391,5.909,86.7,86.7,0,0,0,2.391,39.254c.846,2.4,1.644,4.283,2.109,5.345" transform="translate(99.859 51.564)" fill="none" stroke="#000" stroke-miterlimit="10" stroke-width="2"/>
          <path id="Path_377" data-name="Path 377" d="M621.125,148.536a6.471,6.471,0,0,0-3.375-3.939,6.253,6.253,0,0,0-4.926,0c-3.183,1.362-4.318,5.488-5.063,9.145a86.173,86.173,0,0,0-.564,29.686,114.225,114.225,0,0,0,3.518,14.913" transform="translate(94.173 48.42)" fill="none" stroke="#000" stroke-miterlimit="10" stroke-width="2"/>
          <path id="Path_378" data-name="Path 378" d="M663.872,146.583a9.973,9.973,0,0,0-6.05-1.265c-.659.086-2.907.461-6.612,3.939a35.5,35.5,0,0,0-7.737,11.113c-1.768,3.628-2.848,5.843-3.236,9.145-.423,3.588.229,6.238,1.265,10.271.54,2.1,1.479,5.235,5.768,14.631,2.325,5.094,2.949,6.145,3.939,8.347a75.506,75.506,0,0,1,5.627,20.635c2.87,17.944,5.581,21.541,10.882,54.4,0,0,1.45,8.993-1.5,30.014-.229,1.629-.7,4.624-3,6.379-2.535,1.929-5.167.736-11.254.749-4.018.009-8.786.02-13.507,2.25-1.151.544-6.773,3.2-9.379,9-2.279,5.072-1.336,10.505-1.5,10.505-.207,0,1.375-8.493-3-12.381-1.578-1.4-3.39-1.721-6.377-2.25a34.76,34.76,0,0,0-11.631,0,77.236,77.236,0,0,0-18.383,5.253,71.054,71.054,0,0,0-18.01,11.254,65.227,65.227,0,0,0-10.128,11.257" transform="translate(38.624 49.81)" fill="none" stroke="#000" stroke-miterlimit="10" stroke-width="2"/>
          <path id="Path_379" data-name="Path 379" d="M609.118,151.787a25.911,25.911,0,0,0-2.533,2.533c-1.578,1.816-2.786,3.207-3.236,5.206a8.564,8.564,0,0,0,.282,4.362,13.63,13.63,0,0,0,5.768,7.457" transform="translate(90.564 57.69)" fill="none" stroke="#000" stroke-miterlimit="10" stroke-width="2"/>
          <path id="Path_380" data-name="Path 380" d="M603.716,248.151c-3.306-2.361-8.323-6.053-14.257-10.882-4.745-3.864-4.618-4.009-9.753-8.252-6.549-5.409-11.819-9.352-19.886-15.383-3.566-2.669-6.549-4.858-8.629-6.379" transform="translate(27.965 124.483)" fill="none" stroke="#000" stroke-miterlimit="10" stroke-width="2"/>
          <path id="Path_381" data-name="Path 381" d="M590.184,149.575,721.5,119.936s7.88,8.629,2.253,19.509L597.687,170.96S587.934,160.83,590.184,149.575Z" transform="translate(74.513 19.336)" fill="none" stroke="#000" stroke-miterlimit="10" stroke-width="2"/>
          <path id="Path_382" data-name="Path 382" d="M591.669,166.566s-8.724-54.868,54.589-61.06c0,0,62.186-12.663,72.034,32.642" transform="translate(76.217)" fill="none" stroke="#000" stroke-miterlimit="10" stroke-width="2"/>
          <path id="Path_383" data-name="Path 383" d="M614.705,140.745l-.562,10.692L606.4,158.33l-.7-1.827s-5.065-.282-6.471.139a18.418,18.418,0,0,0-2.954,1.267l-1.829-12.522Z" transform="translate(80.052 44.394)" fill="#161616" stroke="#000" stroke-width="2"/>
          <path id="Path_384" data-name="Path 384" d="M596.038,173.856s-16.179-18.57,5.347-25.324" transform="translate(74.943 53.771)" fill="none" stroke="#000" stroke-miterlimit="10" stroke-width="2"/>
          <ellipse id="Ellipse_1" data-name="Ellipse 1" cx="3.517" cy="5.557" rx="3.517" ry="5.557" transform="translate(730.353 186.826)" fill="#161616" stroke="#000" stroke-width="2"/>
          <ellipse id="Ellipse_2" data-name="Ellipse 2" cx="3.517" cy="5.557" rx="3.517" ry="5.557" transform="translate(780.158 179.51)" fill="#161616" stroke="#000" stroke-width="2"/>
          <path id="Path_385" data-name="Path 385" d="M635.809,140.17l3.8,20.823s14.21-2.954,14.913,5.486c0,0,1.406,7.739-9.848,8.021l-.282,3.095" transform="translate(129.859 43.701)" fill="none" stroke="#000" stroke-miterlimit="10" stroke-width="2"/>
          <path id="Path_386" data-name="Path 386" d="M644.17,169.2s7.316-7.036,9.427-7.457" transform="translate(139.927 69.681)" fill="none" stroke="#000" stroke-miterlimit="10" stroke-width="2"/>
          <path id="Path_387" data-name="Path 387" d="M668.018,128.787l8.909,71.378c.163,1.309.315,2.619.428,3.932.278,3.222.406,6.46.37,9.694a71.5,71.5,0,0,1-1.084,12.171,34.627,34.627,0,0,1-3.93,11.358,17.931,17.931,0,0,1-7,6.606,118.346,118.346,0,0,1-10.822,5.821,36.086,36.086,0,0,1-16.609,2.958q-1.081-.069-2.153-.2" transform="translate(130.243 29.994)" fill="none" stroke="#000" stroke-miterlimit="10" stroke-width="2"/>
          <path id="Path_388" data-name="Path 388" d="M644.215,198.567s5.916-12.641,11.025-14.9c0,0-8.821,3.225-9.571,3.176s-8.911-.187-9.707-.608,2.484,2.907,2.484,2.907,6,9,6,9.52" transform="translate(129.893 96.077)" fill="#161616" stroke="#000" stroke-width="2"/>
          <path id="Path_389" data-name="Path 389" d="M609.447,214.787s30.671,23.917,75.691,10.975" transform="translate(98.115 133.553)" fill="none" stroke="#000" stroke-miterlimit="10" stroke-width="2"/>
          <path id="Path_390" data-name="Path 390" d="M607.66,220.149s31.233,26.45,79.63,10.692" transform="translate(95.963 140.01)" fill="none" stroke="#000" stroke-miterlimit="10" stroke-width="2"/>
          <line id="Line_4" data-name="Line 4" x1="15.007" y2="14.257" transform="translate(1021.491 132.519)" fill="none" stroke="#000" stroke-width="2"/>
          <line id="Line_5" data-name="Line 5" x1="21.01" y2="19.509" transform="translate(1016.239 152.779)" fill="none" stroke="#000" stroke-miterlimit="10" stroke-width="2"/>
          <line id="Line_6" data-name="Line 6" x1="17.258" y2="16.508" transform="translate(1021.491 130.268)" fill="none" stroke="#000" stroke-miterlimit="10" stroke-width="2"/>
          <line id="Line_7" data-name="Line 7" x2="12.756" y2="22.511" transform="translate(854.162 442.416)" fill="none" stroke="#000" stroke-miterlimit="10" stroke-width="2"/>
          <line id="Line_8" data-name="Line 8" x2="18.009" y2="9.004" transform="translate(835.403 470.179)" fill="none" stroke="#000" stroke-miterlimit="10" stroke-width="2"/>
          <path id="Path_391" data-name="Path 391" d="M729.2,277.043l-78.413,83.664,83.666,8.629,49.523-69.784-24.153-8.629,4.08-1.219,6.284,1.126,6.379,2.72,6.659,4.126,5.817,5.253-1.6,3.659-9.191,12.381L764.468,338.76,750.819,356.2l-4.5,6.191s-1.408,1.829.141,2.815a13.3,13.3,0,0,0,2.954,1.406l-13.648,16.743-87.51-11.819,1.126-11.819,77.8-82.445Z" transform="translate(144.846 208.519)" fill="#161616" stroke="#000" stroke-width="2"/>
          <path id="Path_392" data-name="Path 392" d="M703.331,278.031l-14.491-.563-7.457,8.723,17.586-.563Z" transform="translate(184.738 209.031)" fill="none" stroke="#000" stroke-width="2"/>
          <path id="Path_393" data-name="Path 393" d="M687.042,296.681l41.786,3.939-18.853,28.842-45.443-7.6Z" transform="translate(164.446 232.167)" fill="none" stroke="#000" stroke-miterlimit="10" stroke-width="2"/>
        </g>
        <path id="Path_395" data-name="Path 395" d="M-4.594-2.719,58.485,9.566,9.234,76.642H-86.243Z" transform="translate(1200 755)" fill="#4c87f1" opacity="0.77"/>
        <text id="_php_" data-name="&lt;php &gt; " transform="translate(910 278)" fill="#0055ec" font-size="31" font-family="Roboto-Bold, Roboto" font-weight="700" opacity="0.51"><tspan x="-49.739" y="0">&lt;php &gt; </tspan></text>
        <text id="_html_" data-name="&lt;html &gt; " transform="translate(1187 194)" fill="#0055ec" font-size="31" font-family="Roboto-Bold, Roboto" font-weight="700" opacity="0.51"><tspan x="-55.052" y="0">&lt;html &gt; </tspan></text>
        <text id="_css_" data-name="&lt;css &gt; " transform="translate(1242 396)" fill="#0055ec" font-size="31" font-family="Roboto-Bold, Roboto" font-weight="700" opacity="0.51"><tspan x="-47.635" y="0">&lt;css &gt; </tspan></text>
      </g>
    </g>
  </g>
</svg>
