<?xml version="1.0" encoding="utf-8"?>
<!-- Generator: Adobe Illustrator 25.4.1, SVG Export Plug-In . SVG Version: 6.00 Build 0)  -->
<svg version="1.1" id="Vrstva_1" xmlns="http://www.w3.org/2000/svg" xmlns:xlink="http://www.w3.org/1999/xlink" x="0px" y="0px"
	 viewBox="0 0 100 70" style="enable-background:new 0 0 100 70;" xml:space="preserve">
<style type="text/css">
	.st0{fill:#FEFEFE;}
	.st1{fill:#E4E4E4;}
	.st2{fill:#F8F8F8;}
	.st3{fill:#F2F2F2;}
	.st4{fill:#FFFFFF;}
	.st5{fill:#0055EC;}
</style>
<g id="Group_152" transform="translate(0 -40)">
	<g id="Group_150" transform="translate(1368.04 276.638)">
		<path id="Path_398" class="st0" d="M-1350.2-236.1l15.2,0.3l-4.4,18.6h-28.6L-1350.2-236.1z"/>
		<path id="Path_399" class="st1" d="M-1300-235.9h14.3l17.4,18.2h-27.6L-1300-235.9z"/>
		<path id="Path_400" class="st0" d="M-1317.7-166.3l-50.3-51h28.6L-1317.7-166.3z"/>
		<path id="Path_401" class="st2" d="M-1339.4-217.3l43.6-0.4l-4.2-18.2h-35L-1339.4-217.3z"/>
		<path id="Path_402" class="st3" d="M-1268.3-217.6l-49.4,51.4l21.8-51.4L-1268.3-217.6z"/>
		<path id="Path_403" class="st4" d="M-1339.4-217.3l43.6-0.4l-21.8,51.4L-1339.4-217.3z"/>
	</g>
	<g id="Group_151" transform="translate(821.532 306.213)">
		<ellipse id="Ellipse_5" class="st5" cx="-783.4" cy="-257.3" rx="1.4" ry="4.4"/>
		<ellipse id="Ellipse_6" class="st5" cx="-759.9" cy="-256.9" rx="1.4" ry="4.4"/>
		<path id="Path_404" class="st5" d="M-765.4-255.6c0,3.3-2.7,6-6,6c-3.3,0-6-2.7-6-6"/>
	</g>
</g>
</svg>
