<svg xmlns="http://www.w3.org/2000/svg" xmlns:xlink="http://www.w3.org/1999/xlink" width="55" height="55" viewBox="0 0 55 55">
  <defs>
    <clipPath id="clip-path">
      <rect id="Rectangle_14" data-name="Rectangle 14" width="33" height="33" rx="16.5" transform="translate(337 878)" fill="#0055ec"/>
    </clipPath>
  </defs>
  <g id="fb" transform="translate(-382 -867)">
    <rect id="Rectangle_13" data-name="Rectangle 13" width="55" height="55" rx="27.5" transform="translate(382 867)" fill="#e1f4ec"/>
    <g id="Mask_Group_1" data-name="Mask Group 1" transform="translate(56)" clip-path="url(#clip-path)">
      <path id="facebook_1_" data-name="facebook (1)" d="M33,16.6A16.5,16.5,0,1,0,13.916,33V21.4H9.73V16.6h4.19v-3.66c0-4.16,2.464-6.457,6.232-6.457a25.235,25.235,0,0,1,3.693.324v4.083H21.765a2.393,2.393,0,0,0-2.687,2.594V16.6h4.574l-.73,4.8H19.076V33A16.574,16.574,0,0,0,33,16.6Z" transform="translate(337.004 878.002)" fill="#0055ec"/>
    </g>
  </g>
</svg>
