<?xml version="1.0" encoding="utf-8"?>
<!-- Generator: Adobe Illustrator 25.4.1, SVG Export Plug-In . SVG Version: 6.00 Build 0)  -->
<svg version="1.1" id="Vrstva_1" xmlns="http://www.w3.org/2000/svg" xmlns:xlink="http://www.w3.org/1999/xlink" x="0px" y="0px"
	 viewBox="0 0 138 64" style="enable-background:new 0 0 138 64;" xml:space="preserve">
<style type="text/css">
	.st0{fill:#0055EC;}
	.st1{fill:#FFFFFF;}
</style>
<path id="Path_396" class="st0" d="M-0.3,26.8c0,14.8,12,26.8,26.8,26.8l0,0H88c7,11.4,23.9,10.2,23.9,10.2V53.5
	c14.6-0.3,26.2-12.2,26.2-26.8l0,0c0-14.8-12-26.8-26.8-26.8H26.5C11.7-0.1-0.3,11.9-0.3,26.8"/>
<g id="Group_148">
	<circle id="Ellipse_3" class="st1" cx="36.5" cy="27.3" r="11.1"/>
	<circle id="Ellipse_4" class="st1" cx="101.3" cy="27.3" r="11.1"/>
	<path id="Path_397" class="st1" d="M80,26.6c0,6.1-4.9,11.1-11.1,11.1c-6.1,0-11.1-4.9-11.1-11.1c0,0,0,0,0,0"/>
</g>
</svg>
